<svg xmlns="http://www.w3.org/2000/svg" width="1800" height="1013" viewBox="0 0 1800 1013">
 <defs><linearGradient id="g" x1="0" x2="1" y1="0" y2="1"><stop stop-color="#21111a"/><stop offset="0.68" stop-color="#0b1220"/><stop offset="1" stop-color="#111827"/></linearGradient><radialGradient id="r" cx="78%" cy="20%" r="54%"><stop stop-color="#ef4444" stop-opacity="0.35"/><stop offset="1" stop-color="#ef4444" stop-opacity="0"/></radialGradient></defs>
 <rect width="1800" height="1013" fill="url(#g)"/><rect width="1800" height="1013" fill="url(#r)"/>
 <g transform="translate(640 190)" fill="none" stroke="#e5e7eb" stroke-width="26" stroke-linecap="round" stroke-linejoin="round" opacity="0.78"><path d="M205 500h135l82-88h340l92 88h128M385 500h390M350 568a64 64 0 1 0 0-128 64 64 0 0 0 0 128ZM815 568a64 64 0 1 0 0-128 64 64 0 0 0 0 128Z"/></g>
 <text x="76" y="120" class="brand">Audi</text><text x="76" y="260" class="model">Audi A6</text><text x="80" y="510" class="body">Saloon buying guide</text><text x="80" y="840" class="note">Reliability ? engines ? gearbox ? inspection</text>
 <style>.brand{font:800 38px Arial,sans-serif;fill:#ef4444;letter-spacing:7px}.model{font:900 78px Arial,sans-serif;fill:white}.body{font:800 38px Arial,sans-serif;fill:#cbd5e1}.note{font:700 30px Arial,sans-serif;fill:#94a3b8;letter-spacing:2px}</style>
 </svg>