<svg xmlns="http://www.w3.org/2000/svg" width="1800" height="1013" viewBox="0 0 1800 1013">
<defs><linearGradient id="bg" x1="0" x2="1" y1="0" y2="1"><stop stop-color="#0d1d22"/><stop offset=".62" stop-color="#0b1220"/><stop offset="1" stop-color="#141923"/></linearGradient><radialGradient id="glow" cx="72%" cy="20%" r="58%"><stop stop-color="#22c55e" stop-opacity=".34"/><stop offset="1" stop-color="#22c55e" stop-opacity="0"/></radialGradient></defs>
<rect width="1800" height="1013" fill="url(#bg)"/><rect width="1800" height="1013" fill="url(#glow)"/>
<path d="M0 790 C 270 720 505 870 820 785 S 1300 705 1800 775 L1800 1013 L0 1013Z" fill="#22c55e" opacity=".13"/>
<g transform="translate(355 182)" fill="none" stroke="#f1f5f9" stroke-width="25" stroke-linecap="round" stroke-linejoin="round" opacity=".74"><path d="M210 495h118l82-112h372l100 112h120M365 495h420M354 570a72 72 0 1 0 0-144 72 72 0 0 0 0 144ZM832 570a72 72 0 1 0 0-144 72 72 0 0 0 0 144Z"/></g>
<text x="86" y="124" font-family="Arial,sans-serif" font-size="30" font-weight="800" fill="#22c55e" letter-spacing="7">MERCEDES-BENZ</text>
<text x="86" y="196" font-family="Arial,sans-serif" font-size="52" font-weight="900" fill="#fff">Mercedes-Benz GLE</text>
<text x="86" y="850" font-family="Arial,sans-serif" font-size="28" font-weight="700" fill="#94a3b8" letter-spacing="2">used buying guide</text>
</svg>