<svg xmlns="http://www.w3.org/2000/svg" width="1400" height="788" viewBox="0 0 1400 788">
<defs><linearGradient id="bg" x1="0" x2="1" y1="0" y2="1"><stop stop-color="#101820"/><stop offset=".58" stop-color="#0b1220"/><stop offset="1" stop-color="#251312"/></linearGradient><radialGradient id="glow" cx="72%" cy="22%" r="56%"><stop stop-color="#facc15" stop-opacity=".32"/><stop offset="1" stop-color="#facc15" stop-opacity="0"/></radialGradient><linearGradient id="line" x1="0" x2="1"><stop stop-color="#f97316"/><stop offset="1" stop-color="#facc15"/></linearGradient></defs>
<rect width="1400" height="788" fill="url(#bg)"/><rect width="1400" height="788" fill="url(#glow)"/>
<path d="M0 640 C 210 585 380 705 625 642 S 1020 565 1400 622 L1400 788 L0 788Z" fill="url(#line)" opacity=".13"/>
<path d="M82 92h1236M82 696h1236" stroke="#fff" stroke-opacity=".08" stroke-width="2"/>
<g opacity=".74" fill="none" stroke="#e5e7eb" stroke-width="16" stroke-linecap="round" stroke-linejoin="round"><path d="M375 300h390l92 84v155H345V330z"/><path d="M470 300v-80h235v80M430 402h330M430 482h250"/><path d="M920 265c85 78 85 166 0 244-85-78-85-166 0-244z"/><path d="M250 586h910" opacity=".18"/></g>
<circle cx="1090" cy="138" r="7" fill="#f97316"/><circle cx="1124" cy="138" r="7" fill="#facc15"/><circle cx="1158" cy="138" r="7" fill="#e5e7eb" opacity=".55"/>
</svg>