<svg xmlns="http://www.w3.org/2000/svg" width="1400" height="788" viewBox="0 0 1400 788">
<defs><linearGradient id="bg" x1="0" x2="1" y1="0" y2="1"><stop stop-color="#111827"/><stop offset=".58" stop-color="#0b1220"/><stop offset="1" stop-color="#2d1f12"/></linearGradient><radialGradient id="glow" cx="72%" cy="22%" r="56%"><stop stop-color="#94a3b8" stop-opacity=".32"/><stop offset="1" stop-color="#94a3b8" stop-opacity="0"/></radialGradient><linearGradient id="line" x1="0" x2="1"><stop stop-color="#f59e0b"/><stop offset="1" stop-color="#94a3b8"/></linearGradient></defs>
<rect width="1400" height="788" fill="url(#bg)"/><rect width="1400" height="788" fill="url(#glow)"/>
<path d="M0 640 C 210 585 380 705 625 642 S 1020 565 1400 622 L1400 788 L0 788Z" fill="url(#line)" opacity=".13"/>
<path d="M82 92h1236M82 696h1236" stroke="#fff" stroke-opacity=".08" stroke-width="2"/>
<g opacity=".76" fill="none" stroke="#e5e7eb" stroke-width="15" stroke-linecap="round" stroke-linejoin="round"><path d="M430 190h360l100 100v345H430z"/><path d="M790 190v100h100"/><path d="M510 360h270M510 430h270M510 500h180"/><path d="M910 520l62 62 130-176"/></g>
<circle cx="1090" cy="138" r="7" fill="#f59e0b"/><circle cx="1124" cy="138" r="7" fill="#94a3b8"/><circle cx="1158" cy="138" r="7" fill="#e5e7eb" opacity=".55"/>
</svg>