<svg xmlns="http://www.w3.org/2000/svg" width="1400" height="788" viewBox="0 0 1400 788">
  <defs>
    <linearGradient id="g" x1="0" x2="1" y1="0" y2="1"><stop stop-color="#152316"/><stop offset="0.62" stop-color="#0b1220"/><stop offset="1" stop-color="#1f1020"/></linearGradient>
    <radialGradient id="r" cx="74%" cy="18%" r="58%"><stop stop-color="#f97316" stop-opacity="0.38"/><stop offset="1" stop-color="#f97316" stop-opacity="0"/></radialGradient>
  </defs>
  <rect width="1400" height="788" fill="url(#g)"/>
  <rect width="1400" height="788" fill="url(#r)"/>
  <path d="M0 710 C 230 650 380 760 610 705 S 990 620 1400 690 L 1400 788 L 0 788 Z" fill="#f97316" opacity="0.16"/>
  <g fill="none" stroke="#86efac" stroke-width="18" stroke-linecap="round" stroke-linejoin="round" opacity="0.72" transform="translate(570 92) scale(0.9)"><path d="M315 330c88 78 88 160 0 238-88-78-88-160 0-238z"/><path d="M520 330v150a76 76 0 1 0 44 0V330z"/><path d="M542 382v140"/></g>
  <text x="74" y="112" class="eyebrow">TT AUTO'S ENGINEERING</text>
  <text x="74" y="166" class="kicker">Reliability</text>
  <text x="74" y="245" class="title">The Hidden Cost of a Thermostat</text><text x="74" y="303" class="title">Stuck Open on a Diesel</text>
  <text x="74" y="650" class="slug">thermostat / stuck / open / hidden / diesel / costs</text>
  <style>.eyebrow{font:700 28px Arial,sans-serif;fill:#cbd5e1;letter-spacing:6px}.kicker{font:800 34px Arial,sans-serif;fill:#f97316}.title{font:900 54px Arial,sans-serif;fill:#fff}.slug{font:700 24px Arial,sans-serif;fill:#94a3b8;letter-spacing:2px}</style>
</svg>