<svg xmlns="http://www.w3.org/2000/svg" width="1400" height="788" viewBox="0 0 1400 788">
<defs><linearGradient id="bg" x1="0" x2="1" y1="0" y2="1"><stop stop-color="#0b1220"/><stop offset=".58" stop-color="#0b1220"/><stop offset="1" stop-color="#172554"/></linearGradient><radialGradient id="glow" cx="72%" cy="22%" r="56%"><stop stop-color="#ef4444" stop-opacity=".32"/><stop offset="1" stop-color="#ef4444" stop-opacity="0"/></radialGradient><linearGradient id="line" x1="0" x2="1"><stop stop-color="#60a5fa"/><stop offset="1" stop-color="#ef4444"/></linearGradient></defs>
<rect width="1400" height="788" fill="url(#bg)"/><rect width="1400" height="788" fill="url(#glow)"/>
<path d="M0 640 C 210 585 380 705 625 642 S 1020 565 1400 622 L1400 788 L0 788Z" fill="url(#line)" opacity=".13"/>
<path d="M82 92h1236M82 696h1236" stroke="#fff" stroke-opacity=".08" stroke-width="2"/>
<g opacity=".76" fill="none" stroke="#e5e7eb" stroke-width="15" stroke-linecap="round" stroke-linejoin="round"><path d="M250 430h120l84-104h380l105 104h154"/><circle cx="438" cy="508" r="68"/><circle cx="860" cy="508" r="68"/><path d="M505 430h270"/><path d="M1010 240l42 42 92-112"/><circle cx="1070" cy="226" r="120" opacity=".34"/></g>
<circle cx="1090" cy="138" r="7" fill="#60a5fa"/><circle cx="1124" cy="138" r="7" fill="#ef4444"/><circle cx="1158" cy="138" r="7" fill="#e5e7eb" opacity=".55"/>
</svg>